<?xml version="1.0" standalone="no"?>
<!DOCTYPE svg PUBLIC "-//W3C//DTD SVG 20010904//EN"
 "http://www.w3.org/TR/2001/REC-SVG-20010904/DTD/svg10.dtd">
<svg version="1.0" xmlns="http://www.w3.org/2000/svg"
 width="500.000000pt" height="500.000000pt" viewBox="0 0 500.000000 500.000000"
 preserveAspectRatio="xMidYMid meet">
<metadata>
Created by potrace 1.14, written by Peter Selinger 2001-2017
</metadata>
<g transform="translate(0.000000,500.000000) scale(0.100000,-0.100000)"
fill="#000000" stroke="none">
<path d="M3745 4813 c-380 -39 -744 -267 -957 -598 -83 -128 -154 -303 -178
-437 -18 -95 -17 -94 -43 -67 -119 125 -348 286 -577 406 -224 118 -660 265
-767 258 -44 -3 -73 -34 -73 -79 1 -58 22 -71 180 -111 80 -20 154 -40 165
-44 11 -5 67 -25 125 -46 297 -104 607 -293 838 -510 l44 -41 -89 -71 c-295
-237 -533 -588 -698 -1028 -46 -122 -98 -289 -115 -370 -8 -33 -14 -61 -15
-62 -1 -2 -25 8 -53 22 -96 46 -136 56 -242 60 -112 5 -183 -8 -270 -47 -44
-20 -136 -81 -175 -115 -42 -38 -165 -193 -165 -209 0 -3 -8 -18 -19 -32 -27
-40 -80 -184 -103 -281 -26 -113 -33 -354 -13 -466 56 -326 213 -571 445 -697
111 -60 247 -76 450 -54 88 10 297 10 390 1 168 -16 247 -15 326 5 112 29 228
98 310 186 l32 34 60 -58 c73 -68 148 -116 240 -150 76 -28 196 -34 377 -17
106 9 300 10 375 1 25 -3 86 -8 135 -12 222 -16 407 73 566 272 87 109 142
227 186 398 23 87 26 123 27 261 1 162 -6 253 -24 300 -5 14 -7 25 -5 25 7 0
-55 171 -82 225 -97 192 -260 347 -425 405 -133 46 -314 36 -439 -25 -29 -14
-55 -22 -58 -20 -3 3 -7 18 -8 33 -6 43 -32 170 -54 257 -97 386 -281 776
-497 1058 -44 59 -47 69 -14 72 154 15 391 108 551 218 87 59 249 216 308 297
97 135 174 296 211 445 29 113 32 137 39 255 5 103 4 106 -21 133 -24 26 -30
28 -99 25 -39 -1 -85 -4 -102 -5z m-1054 -1481 c249 -308 445 -730 538 -1162
31 -138 33 -132 -46 -102 -77 28 -233 39 -313 21 -113 -24 -228 -89 -322 -179
l-49 -47 -42 41 c-64 64 -117 102 -188 135 -106 50 -159 61 -272 57 -107 -4
-117 -5 -184 -30 -37 -13 -43 -13 -43 -1 0 20 86 285 122 375 28 71 144 313
171 355 133 214 235 346 352 457 76 72 198 167 207 162 4 -2 35 -39 69 -82z"/>
</g>
</svg>
