<svg width="36" height="36" viewBox="0 0 36 36" fill="none" xmlns="http://www.w3.org/2000/svg">
<path d="M18 36C27.9411 36 36 27.9411 36 18C36 8.05888 27.9411 0 18 0C8.05888 0 0 8.05888 0 18C0 27.9411 8.05888 36 18 36Z" fill="url(#paint0_linear_451_13108)"/>
<path d="M12.1836 19.316L14.3191 25.2269C14.3191 25.2269 14.5861 25.78 14.872 25.78C15.1579 25.78 19.4103 21.3562 19.4103 21.3562L24.139 12.2227L12.2598 17.7902L12.1836 19.316Z" fill="#C8DAEA"/>
<path d="M15.0167 20.832L14.6068 25.1889C14.6068 25.1889 14.4352 26.5239 15.7699 25.1889C17.1046 23.8539 18.3821 22.8245 18.3821 22.8245" fill="#A9C6D8"/>
<path d="M12.2238 19.5264L7.8309 18.0951C7.8309 18.0951 7.30589 17.8821 7.47494 17.3991C7.50974 17.2995 7.57994 17.2148 7.78994 17.0691C8.76329 16.3907 25.8058 10.2651 25.8058 10.2651C25.8058 10.2651 26.287 10.103 26.5708 10.2108C26.6411 10.2326 26.7042 10.2726 26.7539 10.3267C26.8036 10.3809 26.838 10.4473 26.8536 10.5191C26.8843 10.6459 26.8971 10.7765 26.8917 10.9068C26.8903 11.0196 26.8767 11.1242 26.8663 11.2881C26.7625 12.9629 23.6563 25.4621 23.6563 25.4621C23.6563 25.4621 23.4705 26.1935 22.8046 26.2185C22.641 26.2238 22.478 26.1961 22.3253 26.137C22.1726 26.078 22.0334 25.9888 21.9159 25.8747C20.6092 24.7508 16.093 21.7157 15.0951 21.0482C15.0726 21.0329 15.0536 21.0129 15.0395 20.9896C15.0254 20.9663 15.0164 20.9402 15.0132 20.9132C14.9992 20.8428 15.0757 20.7557 15.0757 20.7557C15.0757 20.7557 22.9396 13.7657 23.1489 13.0319C23.1651 12.975 23.1039 12.947 23.0217 12.9719C22.4994 13.164 13.4451 18.8819 12.4458 19.5129C12.3739 19.5347 12.2978 19.5393 12.2238 19.5264Z" fill="white"/>
<defs>
<linearGradient id="paint0_linear_451_13108" x1="18" y1="36" x2="18" y2="0" gradientUnits="userSpaceOnUse">
<stop stop-color="#1D93D2"/>
<stop offset="1" stop-color="#38B0E3"/>
</linearGradient>
</defs>
</svg>
