<svg width="36" height="36" viewBox="0 0 36 36" fill="none" xmlns="http://www.w3.org/2000/svg">
<circle cx="18" cy="18" r="18" fill="white"/>
<path d="M7.98232 17.151C7.98235 16.959 8.0203 16.769 8.09399 16.5917C8.16767 16.4145 8.27564 16.2536 8.4117 16.1182C8.54775 15.9828 8.70921 15.8756 8.8868 15.8028C9.0644 15.7299 9.25462 15.6929 9.44657 15.6938L11.8741 15.7017C12.2612 15.7017 12.6324 15.8555 12.9061 16.1292C13.1798 16.4029 13.3336 16.7741 13.3336 17.1612V26.3411C13.607 26.26 13.9569 26.1736 14.3419 26.083C14.6087 26.0202 14.8465 25.8692 15.0166 25.6543C15.1868 25.4395 15.2794 25.1735 15.2795 24.8995V13.5133C15.2795 13.1262 15.4332 12.755 15.7069 12.4812C15.9806 12.2075 16.3518 12.0536 16.7389 12.0536H19.1739C19.561 12.0536 19.9322 12.2075 20.2059 12.4812C20.4795 12.755 20.6333 13.1262 20.6333 13.5133V24.0815C20.6333 24.0815 21.2425 23.835 21.8355 23.5846C22.0558 23.4914 22.2439 23.3353 22.3761 23.136C22.5084 22.9366 22.579 22.7027 22.5792 22.4634V9.86456C22.5792 9.47754 22.7329 9.10637 23.0066 8.83268C23.2802 8.55899 23.6514 8.4052 24.0384 8.40512H26.4708C26.8576 8.4055 27.2284 8.55943 27.5018 8.83308C27.7752 9.10674 27.9288 9.47774 27.9288 9.86456V20.2393C30.0376 18.711 32.1748 16.8727 33.8708 14.6625C34.1168 14.3416 34.2797 13.9649 34.3447 13.5658C34.4098 13.1668 34.3751 12.7578 34.2436 12.3754C33.4586 10.1168 32.2106 8.04684 30.5796 6.29815C28.9487 4.54945 26.9706 3.16049 24.7721 2.22013C22.5735 1.27977 20.2028 0.80873 17.8118 0.837151C15.4207 0.865572 13.0619 1.39283 10.8863 2.38518C8.71072 3.37753 6.76624 4.81312 5.17731 6.60009C3.58837 8.38706 2.38997 10.4861 1.65879 12.7627C0.927617 15.0394 0.679766 17.4437 0.9311 19.8217C1.18243 22.1997 1.92742 24.499 3.11838 26.5726C3.32587 26.9303 3.63114 27.2213 3.99832 27.4115C4.3655 27.6017 4.77934 27.6832 5.19122 27.6464C5.65135 27.6059 6.22425 27.5486 6.90537 27.4687C7.20182 27.435 7.4755 27.2934 7.6743 27.0709C7.8731 26.8485 7.98314 26.5607 7.98345 26.2623V17.151" fill="#12161C"/>
<path d="M7.92969 31.8737C10.4936 33.739 13.5235 34.8585 16.6843 35.1086C19.845 35.3587 23.0133 34.7295 25.8386 33.2907C28.6639 31.8519 31.0362 29.6595 32.6928 26.9562C34.3495 24.2528 35.226 21.1439 35.2255 17.9733C35.2255 17.5766 35.207 17.1862 35.1807 16.7969C28.9012 26.1624 17.3068 30.5407 7.92969 31.8737Z" fill="#F0B90B"/>
</svg>
