<svg width="36" height="36" viewBox="0 0 36 36" fill="none" xmlns="http://www.w3.org/2000/svg">
<path d="M17.8643 0.199219C15.5384 0.199219 13.2352 0.657353 11.0863 1.54746C8.93734 2.43758 6.98478 3.74223 5.34007 5.38694C3.69536 7.03165 2.3907 8.98421 1.50059 11.1331C0.610478 13.282 0.152344 15.5852 0.152344 17.9112C0.152344 20.2372 0.610478 22.5404 1.50059 24.6893C2.3907 26.8382 3.69536 28.7908 5.34007 30.4355C6.98478 32.0802 8.93734 33.3849 11.0863 34.275C13.2352 35.1651 15.5384 35.6232 17.8643 35.6232C22.5619 35.6232 27.067 33.7571 30.3886 30.4355C33.7103 27.1138 35.5763 22.6087 35.5763 17.9112C35.5763 13.2137 33.7103 8.70859 30.3886 5.38694C27.067 2.0653 22.5619 0.199219 17.8643 0.199219Z" fill="#03A9F4"/>
<path d="M28.4907 11.8166C27.709 12.1632 26.7206 12.4883 25.8339 12.5963C26.735 12.0614 28.1657 10.9464 28.4907 9.93945C27.6473 10.4342 26.125 10.9629 25.1314 11.1542C24.3374 10.3128 23.2059 9.93945 21.9521 9.93945C19.5432 9.93945 17.8635 11.9801 17.8635 14.3675V16.1387C14.3211 16.1387 10.8672 13.4397 8.71747 10.8251C8.32902 11.4841 8.12509 12.2355 8.12707 13.0005C8.12707 14.6112 9.60719 16.2467 10.7787 17.0243C10.0639 17.0016 8.7113 16.4565 8.12193 16.1387V16.1891C8.12193 18.2853 9.59279 19.7078 11.5862 20.1048C11.222 20.2046 10.7787 20.5656 9.0713 20.5656C9.6257 22.2792 12.4121 23.1854 14.3211 23.2224C12.8276 24.3806 10.1657 24.9947 8.12193 24.9947C7.7681 24.9947 7.57679 25.0132 7.23633 24.9741C9.1649 26.196 11.8587 26.7648 14.3211 26.7648C22.3419 26.7648 26.7195 20.6387 26.7195 14.9249C26.7195 14.7377 26.7134 14.1083 26.7031 13.9241C27.5609 13.3204 27.9075 12.6878 28.4907 11.8166Z" fill="white"/>
</svg>
