<svg width="26" height="30" viewBox="0 0 26 30" fill="none" xmlns="http://www.w3.org/2000/svg">
<path d="M7 4.5H4C3.20435 4.5 2.44129 4.81607 1.87868 5.37868C1.31607 5.94129 1 6.70435 1 7.5V25.5C1 26.2956 1.31607 27.0587 1.87868 27.6213C2.44129 28.1839 3.20435 28.5 4 28.5H19C19.7956 28.5 20.5587 28.1839 21.1213 27.6213C21.6839 27.0587 22 26.2956 22 25.5V24M7 4.5C7 5.29565 7.31607 6.05871 7.87868 6.62132C8.44129 7.18393 9.20435 7.5 10 7.5H13C13.7956 7.5 14.5587 7.18393 15.1213 6.62132C15.6839 6.05871 16 5.29565 16 4.5M7 4.5C7 3.70435 7.31607 2.94129 7.87868 2.37868C8.44129 1.81607 9.20435 1.5 10 1.5H13C13.7956 1.5 14.5587 1.81607 15.1213 2.37868C15.6839 2.94129 16 3.70435 16 4.5M16 4.5H19C19.7956 4.5 20.5587 4.81607 21.1213 5.37868C21.6839 5.94129 22 6.70435 22 7.5V12M25 18H10M10 18L14.5 13.5M10 18L14.5 22.5" stroke="white" stroke-width="2" stroke-linecap="round" stroke-linejoin="round"/>
</svg>
