<svg width="200" height="200" viewBox="0 0 200 200" fill="none" xmlns="http://www.w3.org/2000/svg">
    <path d="M100 200C155.228 200 200 155.228 200 100C200 44.7715 155.228 0 100 0C44.7715 0 0 44.7715 0 100C0 155.228 44.7715 200 100 200Z" fill="#F3BA2F"/>
    <path d="M75.725 90.025L100 65.75L124.287 90.0375L138.412 75.9125L100 37.5L61.6 75.9L75.725 90.025ZM37.5 100L51.625 85.875L65.75 100L51.625 114.125L37.5 100ZM75.725 109.975L100 134.25L124.287 109.962L138.412 124.081L100 162.5L61.6 124.1L61.5812 124.081L75.725 109.975ZM134.25 100L148.375 85.875L162.5 100L148.375 114.125L134.25 100ZM114.325 99.9875H114.338V100L100 114.338L85.6812 100.025L85.6562 100L85.6812 99.9812L88.1875 97.4688L89.4063 96.25L100 85.6625L114.331 99.9937L114.325 99.9875Z" fill="white"/>
</svg>
