<svg width="35" height="35" fill="none" xmlns="http://www.w3.org/2000/svg"><g clip-path="url(#a)"><rect x=".273" y=".193" width="34.44" height="34.44" rx="17.22" fill="#fff"/><path d="M7.43 16.59a1.461 1.461 0 0 1 1.466-1.46l2.431.007A1.461 1.461 0 0 1 12.79 16.6v9.197c.274-.081.624-.168 1.01-.259a1.218 1.218 0 0 0 .939-1.185V12.945a1.463 1.463 0 0 1 1.461-1.462h2.438a1.46 1.46 0 0 1 1.462 1.462v10.587s.61-.247 1.204-.497a1.22 1.22 0 0 0 .745-1.124V9.29a1.462 1.462 0 0 1 1.46-1.462h2.437a1.461 1.461 0 0 1 1.46 1.462v10.393c2.112-1.53 4.252-3.372 5.95-5.587a2.455 2.455 0 0 0 .374-2.29A17.212 17.212 0 0 0 24.244 1.63 17.2 17.2 0 0 0 1.097 12.193 17.217 17.217 0 0 0 2.56 26.028a2.177 2.177 0 0 0 2.076 1.076 59.69 59.69 0 0 0 1.716-.178 1.217 1.217 0 0 0 1.08-1.209V16.59" fill="#12161C"/><path d="M7.378 31.338a17.206 17.206 0 0 0 24.799-4.926 17.221 17.221 0 0 0 2.536-9c0-.397-.019-.788-.045-1.178-6.288 9.382-17.9 13.768-27.29 15.104" fill="#F0B90B"/></g><defs><clipPath id="a"><rect x=".273" y=".193" width="34.44" height="34.44" rx="17.22" fill="#fff"/></clipPath></defs></svg>