<svg width="25" height="30" fill="none" xmlns="http://www.w3.org/2000/svg"><path d="M21.304.533c0 2.14-.867 4.077-2.27 5.479a7.726 7.726 0 0 1-5.479 2.269c0-4.28 3.47-7.748 7.749-7.748Z" fill="#9AD14B"/><path d="M12.5 19.662c.755-1.157 1.862-1.887 3.095-1.887.885 0 1.703.377 2.375 1.016.67-.64 1.489-1.016 2.373-1.016 2.278 0 4.124 2.49 4.124 5.56 0 3.071-1.846 5.56-4.124 5.56-.132 0-.263-.008-.393-.024a15.59 15.59 0 0 0-3.962 0 3.14 3.14 0 0 1-.393.025c-1.233 0-2.34-.73-3.095-1.887-.64-.98-1.028-2.265-1.028-3.673 0-1.409.388-2.695 1.028-3.674Z" fill="#F0B90B"/><path d="M16.126 27.009c-.64-.98-1.029-2.265-1.029-3.673 0-1.409.388-2.695 1.028-3.674a4.56 4.56 0 0 1 1.281-1.321 3.26 3.26 0 0 0-1.811-.566c-1.233 0-2.34.73-3.096 1.887-.64.98-1.028 2.265-1.028 3.674 0 1.408.389 2.693 1.03 3.673.754 1.157 1.861 1.887 3.094 1.887.133 0 .264-.009.393-.025a15.597 15.597 0 0 1 2.29-.122c-.848-.267-1.596-.887-2.152-1.74Z" fill="#F0B90B"/><path d="M12.5 27.009a4.83 4.83 0 0 1-.853.993c-.645.566-1.415.894-2.241.894-.134 0-.265-.008-.394-.025a15.59 15.59 0 0 0-3.962 0 3.02 3.02 0 0 1-.393.025c-2.278 0-4.124-2.49-4.124-5.561 0-3.07 1.846-5.56 4.124-5.56.884 0 1.703.377 2.374 1.016.672-.64 1.49-1.016 2.375-1.016.826 0 1.596.328 2.24.893.317.278.605.612.854.994-.64.98-1.028 2.265-1.028 3.674 0 1.408.388 2.693 1.028 3.673Z" fill="#F0B90B"/><path d="M5.188 27.009c-.641-.98-1.03-2.265-1.03-3.673 0-1.409.389-2.695 1.029-3.674a4.558 4.558 0 0 1 1.28-1.321 3.26 3.26 0 0 0-1.81-.566c-1.233 0-2.34.73-3.096 1.887-.64.98-1.028 2.265-1.028 3.674 0 1.408.388 2.693 1.029 3.673.755 1.157 1.862 1.887 3.095 1.887.133 0 .263-.009.393-.025a15.598 15.598 0 0 1 2.29-.122c-.848-.267-1.596-.887-2.152-1.74Z" fill="#F0B90B"/><path d="M5.188 27.009c-.641-.98-1.03-2.265-1.03-3.673 0-1.409.389-2.695 1.029-3.674a4.558 4.558 0 0 1 1.28-1.321 3.26 3.26 0 0 0-1.81-.566c-1.233 0-2.34.73-3.096 1.887-.64.98-1.028 2.265-1.028 3.674 0 1.408.388 2.693 1.029 3.673.755 1.157 1.862 1.887 3.095 1.887.133 0 .263-.009.393-.025a15.598 15.598 0 0 1 2.29-.122c-.848-.267-1.596-.887-2.152-1.74ZM12.5 27.009c-.25.381-.536.716-.853.993a4.804 4.804 0 0 1-.853-.993c-.64-.98-1.029-2.265-1.029-3.673 0-1.409.388-2.695 1.028-3.674.25-.382.536-.716.854-.994.317.278.604.612.853.994-.64.98-1.028 2.265-1.028 3.674 0 1.408.388 2.693 1.028 3.673Z" fill="#F0B90B"/><path d="M12.5 27.009c-.25.381-.536.716-.853.993a4.804 4.804 0 0 1-.853-.993c-.64-.98-1.029-2.265-1.029-3.673 0-1.409.388-2.695 1.028-3.674.25-.382.536-.716.854-.994.317.278.604.612.853.994-.64.98-1.028 2.265-1.028 3.674 0 1.408.388 2.693 1.028 3.673Z" fill="#F0B90B"/><g opacity=".7" fill="#fff"><path d="m5.111 22.946 1.44-1.44 1.44 1.44.839-.837L6.55 19.83l-2.278 2.278.838.838Zm-2.267.591.838-.837.837.837-.837.838-.838-.837Zm2.267.592 1.44 1.44 1.44-1.44.839.837-2.279 2.279-2.278-2.278-.001-.001.84-.837Zm3.472-.591.838-.838.838.838-.838.838-.838-.838Z"/><path d="M7.4 23.537h.001l-.85-.85-.628.628-.072.072-.15.15v.002l.85.85.85-.851Z"/></g><g opacity=".7" fill="#fff"><path d="m16.55 22.946 1.44-1.44 1.44 1.44.838-.837-2.279-2.279-2.277 2.278.838.838Zm-2.268.591.838-.838.838.838-.838.838-.838-.838Zm2.268.592 1.44 1.44 1.44-1.44.838.837-2.279 2.279-2.277-2.278-.002-.001.84-.837Zm3.471-.591.838-.838.838.838-.838.838-.838-.838Z"/><path d="m18.84 23.537-.85-.85-.629.628-.072.072-.15.15v.002l.85.85.85-.851v-.001Z"/></g><path d="m21.304.533-7.749 7.748c0-4.28 3.47-7.748 7.749-7.748Z" fill="#90BC42"/><path d="M23.688 19.086c-.882-1.19-2.07-1.844-3.345-1.844-.681 0-1.341.189-1.947.553-.179-1.235-.652-3.5-1.88-5.945a17.542 17.542 0 0 0-1.978-3.094c4.105-.488 7.299-3.989 7.299-8.223A.533.533 0 0 0 21.303 0c-4.192 0-7.666 3.131-8.207 7.177a15.985 15.985 0 0 0-.755-.681c-2.136-1.803-4.752-3.045-7.774-3.69a.533.533 0 0 0-.223 1.043c2.84.606 5.293 1.766 7.29 3.446.307.258.603.529.889.811-1.97 1.362-3.609 3.54-4.766 6.343-.57 1.38-.902 2.611-1.08 3.392a3.764 3.764 0 0 0-2.02-.599c-1.275 0-2.462.655-3.344 1.844C.466 20.227 0 21.736 0 23.336c0 1.598.466 3.108 1.313 4.25.882 1.188 2.07 1.843 3.344 1.843.155 0 .31-.01.46-.03a15.1 15.1 0 0 1 3.827 0c.151.02.306.03.461.03 1.152 0 2.25-.55 3.096-1.533.85.99 1.936 1.533 3.094 1.533.153 0 .308-.01.46-.03a15.08 15.08 0 0 1 3.828 0c.152.02.307.03.46.03 1.275 0 2.462-.655 3.344-1.844.847-1.142 1.313-2.65 1.313-4.25 0-1.598-.466-3.108-1.313-4.25ZM20.748 1.088a7.226 7.226 0 0 1-6.64 6.639 7.226 7.226 0 0 1 6.64-6.64Zm-7.486 7.805a16.274 16.274 0 0 1 2.281 3.4 19.028 19.028 0 0 1 1.748 5.363 3.71 3.71 0 0 0-1.697-.414c-1.158 0-2.244.542-3.094 1.533-.846-.982-1.944-1.533-3.095-1.533-.544 0-1.073.12-1.571.353.184-.722.474-1.688.908-2.739.78-1.89 2.189-4.414 4.52-5.963Zm-3.857 19.47c-.11 0-.22-.007-.326-.02a16.184 16.184 0 0 0-4.098 0c-.106.013-.215.02-.325.02-1.98 0-3.59-2.256-3.59-5.028s1.61-5.027 3.59-5.027c.716 0 1.41.3 2.007.869.206.196.529.196.735 0 .597-.568 1.29-.869 2.007-.869.91 0 1.79.498 2.457 1.376-.6 1.047-.925 2.318-.925 3.651 0 1.334.326 2.604.925 3.652-.666.878-1.547 1.376-2.457 1.376Zm10.937 0c-.108 0-.218-.007-.325-.021a16.14 16.14 0 0 0-4.097 0c-.108.014-.217.02-.326.02-1.032 0-1.963-.613-2.619-1.593a.53.53 0 0 0-.066-.102c-.563-.888-.905-2.055-.905-3.332 0-2.772 1.61-5.027 3.59-5.027.716 0 1.41.3 2.007.869.206.195.529.195.735 0 .597-.569 1.29-.87 2.006-.87 1.98 0 3.59 2.256 3.59 5.028s-1.61 5.028-3.59 5.028Z" fill="#333"/></svg>