<svg width="1000" height="1000" viewBox="0 0 1000 1000" fill="none" xmlns="http://www.w3.org/2000/svg">
    <circle cx="500" cy="500" r="500" fill="#FFD3C7"/>
    <path d="M767.396 293.968L767.383 248.185C775.893 239.594 781.152 227.778 781.152 214.729C781.152 188.472 759.866 167.188 733.609 167.188H266.388C240.133 167.188 218.847 188.474 218.847 214.729C218.847 227.778 224.107 239.594 232.616 248.185L232.603 293.968C226.131 324.157 199.309 346.794 167.188 346.794C207.614 346.794 217.01 382.011 257.434 382.011C297.861 382.011 297.861 346.794 338.288 346.794C378.713 346.794 378.713 382.011 419.137 382.011C459.563 382.011 459.563 346.794 499.988 346.794C540.415 346.794 540.415 382.011 580.842 382.011C621.267 382.011 621.267 346.794 661.693 346.794C702.124 346.794 702.124 382.011 742.555 382.011C782.987 382.011 792.384 346.794 832.814 346.794C800.691 346.794 773.868 324.157 767.396 293.968Z" fill="#F2962E"/>
    <path d="M700.153 832.813C731.274 832.813 756.502 807.585 756.502 776.464V380.354C752.418 381.4 747.837 382.013 742.553 382.013C702.122 382.013 702.122 346.795 661.69 346.795C621.265 346.795 621.265 382.013 580.839 382.013C540.412 382.013 540.412 346.795 499.985 346.795C459.559 346.795 459.559 382.013 419.134 382.013C378.71 382.013 378.71 346.795 338.286 346.795C297.859 346.795 297.859 382.013 257.431 382.013C252.152 382.013 247.576 381.402 243.494 380.357V776.464C243.494 807.585 268.722 832.813 299.843 832.813H700.153V832.813Z" fill="#D6374C"/>
    <path d="M767.399 248.188H232.603V293.97H767.399V248.188Z" fill="#DFDBB2"/>
    <path d="M700.153 802.248H423.478V781.872H700.153C703.136 781.872 705.562 779.446 705.562 776.463V755.367H725.939V776.463C725.939 790.681 714.37 802.248 700.153 802.248Z" fill="#F4ABBE"/>
    <path d="M756.51 439.775H243.503V725.036H756.51V439.775Z" fill="#249189"/>
    <path d="M777.584 292.841V252.134C786.486 241.702 791.341 228.58 791.341 214.731C791.341 182.898 765.444 157 733.611 157H266.388C234.558 157 208.659 182.898 208.659 214.731C208.659 228.578 213.513 241.701 222.415 252.134V292.843C216.473 318.265 193.414 336.609 167.188 336.609V356.985C184.164 356.985 194.483 364.279 206.432 372.726C214.235 378.242 222.685 384.188 233.31 388.043V429.583V735.219V776.463C233.31 813.152 263.159 843 299.847 843H355.56V822.624H299.847C274.394 822.624 253.687 801.916 253.687 776.463V735.219H746.315V776.463C746.315 801.916 725.608 822.624 700.155 822.624H382.727V843H700.155C736.844 843 766.691 813.152 766.691 776.463V735.219V429.583V388.039C777.314 384.184 785.761 378.239 793.565 372.724C805.515 364.278 815.836 356.985 832.814 356.985V336.609C806.587 336.607 783.527 318.264 777.584 292.841ZM266.388 177.376H733.611C754.208 177.376 770.966 194.134 770.966 214.733C770.966 223.286 768.097 231.408 762.826 238H382.727V258.377H757.2L757.207 283.784H242.794L242.8 258.377H355.559V237.999H237.174C231.904 231.406 229.034 223.283 229.034 214.731C229.034 194.132 245.791 177.376 266.388 177.376ZM253.685 714.844V449.958H746.314V714.844H253.685ZM746.315 392.109V429.582H253.685V392.109C254.914 392.171 256.161 392.2 257.434 392.2C281.463 392.2 293.731 381.514 304.554 372.085C314.24 363.647 321.891 356.982 338.288 356.982C354.685 356.982 362.336 363.647 372.022 372.085C382.845 381.514 395.11 392.2 419.139 392.2C443.167 392.2 455.434 381.514 466.257 372.085C475.943 363.647 483.593 356.982 499.99 356.982C516.387 356.982 524.039 363.647 533.725 372.085C544.548 381.514 556.814 392.2 580.844 392.2C604.872 392.2 617.139 381.514 627.963 372.085C637.648 363.647 645.299 356.982 661.696 356.982C678.097 356.982 685.749 363.648 695.437 372.086C706.26 381.515 718.528 392.202 742.558 392.202C743.828 392.2 745.082 392.171 746.315 392.109ZM781.802 356.085C774.083 361.541 767.036 366.502 758.442 369.341L753.974 370.485C750.451 371.387 746.714 371.827 742.551 371.827C740.502 371.827 738.588 371.722 736.79 371.524C724.206 370.133 717.289 364.106 708.812 356.724C697.988 347.295 685.719 336.609 661.689 336.609C637.662 336.609 625.394 347.295 614.571 356.724C604.885 365.162 597.235 371.827 580.838 371.827C564.441 371.827 556.789 365.162 547.103 356.724C536.28 347.295 524.014 336.609 499.983 336.609C475.956 336.609 463.688 347.295 452.865 356.724C443.179 365.162 435.529 371.827 419.132 371.827C402.736 371.827 395.086 365.162 385.4 356.724C374.577 347.295 362.311 336.607 338.282 336.607C314.253 336.607 301.985 347.294 291.162 356.722C281.476 365.161 273.825 371.825 257.428 371.825C253.267 371.825 249.535 371.388 246.017 370.487L241.568 369.348C232.966 366.51 225.913 361.546 218.188 356.085C213.962 353.098 209.551 349.979 204.706 347.136C221.234 337.866 234.211 322.658 240.362 304.156H759.628C765.78 322.657 778.754 337.864 795.282 347.136C790.441 349.978 786.029 353.097 781.802 356.085Z" fill="#7A1B2E"/>
    <path d="M740.21 197.499H520.749V217.875H740.21V197.499Z" fill="#FFC88F"/>
    <path d="M725.932 493.213H705.556V671.596H725.932V493.213Z" fill="#7EC3C1"/>
    <path d="M410.985 698C451.618 698 484.559 665.06 484.559 624.426C484.559 583.792 451.618 550.852 410.985 550.852C370.351 550.852 337.41 583.792 337.41 624.426C337.41 665.06 370.351 698 410.985 698Z" fill="#D6374C" stroke="#7A1B2E" stroke-width="10"/>
    <path d="M589.276 698C629.91 698 662.851 665.06 662.851 624.426C662.851 583.792 629.91 550.852 589.276 550.852C548.643 550.852 515.702 583.792 515.702 624.426C515.702 665.06 548.643 698 589.276 698Z" fill="#D6374C" stroke="#7A1B2E" stroke-width="10"/>
    <path d="M447.559 492.847H451.304C428.975 509.217 405.415 536.718 405.415 585.565C405.415 588.176 406.71 590.704 408.565 592.559C410.42 594.414 412.948 595.709 415.559 595.709C418.17 595.709 420.698 594.414 422.553 592.559C424.407 590.704 425.703 588.176 425.703 585.565C425.703 549.32 440.975 526.734 457.629 512.903C474.131 499.198 492.024 494.066 497.849 492.867C503.673 494.066 521.567 499.198 538.069 512.903C554.723 526.734 569.995 549.32 569.995 585.565C569.995 588.176 571.291 590.704 573.146 592.559C575.001 594.414 577.528 595.709 580.139 595.709C582.751 595.709 585.278 594.414 587.133 592.559C588.982 590.709 590.276 588.191 590.284 585.588C592.474 537.113 571.454 507.487 547.303 492.847H550.419C553.03 492.847 555.558 491.551 557.413 489.696C559.267 487.841 560.563 485.314 560.563 482.703C560.563 480.091 559.267 477.564 557.413 475.709C555.558 473.854 553.03 472.559 550.419 472.559H447.559C444.948 472.559 442.42 473.854 440.565 475.709C438.71 477.564 437.415 480.091 437.415 482.703C437.415 485.314 438.71 487.841 440.565 489.696C442.42 491.551 444.948 492.847 447.559 492.847Z" fill="#7A1B2E" stroke="#7A1B2E" stroke-width="2"/>
</svg>
