<svg width="364" height="371" viewBox="0 0 364 371" fill="none" xmlns="http://www.w3.org/2000/svg">	<path fill-rule="evenodd" clip-rule="evenodd" d="M126 289L146.5 301L171.5 286L138 266L137.5 235.5L110 220L110.5 72L181 31L249.5 70L251.5 124L276.5 138L275.5 56L179.5 0L83.5 56V220L54.5 235.5L56.5 284L97 307L126 289ZM0 205.5L71 162V192L25.5 221V299L96 340L225.5 266V234L251.5 218L252 180L277 194V218L306.5 234V281.5L266 307L238 289.5L95.5 371L0 316V205.5ZM120 163V134L140.5 122.5L140 88L180 65L222.5 87L221.5 120L363.5 202.5V313.5L268 368.5L195.5 329L220.5 314L268 339L336.5 299.5V218.5L208.5 143.5L180.5 159.5L153.5 145L120 163ZM79.5 250L97.5 241L113.5 250V267.5L96.5 278.5L80 269L79.5 250ZM264.5 239L250 248.5V267L266.5 277.5L282.5 268V249L264.5 239ZM180.5 93L197 102L196.5 121L180.5 131L165.5 123L164.5 102.5L180.5 93Z" fill="#F0B90C"/></svg>