<svg width="1778" height="695" viewBox="0 0 1778 695" fill="none" xmlns="http://www.w3.org/2000/svg">
<rect width="1778" height="695" fill="url(#paint0_linear_256_1392)"/>
<path d="M509.637 100.276C509.637 137.506 494.548 171.198 470.157 195.588C445.754 219.979 412.062 235.069 374.832 235.069C374.832 160.623 435.191 100.276 509.637 100.276Z" fill="#9AD14B"/>
<path d="M356.465 433.064C369.613 412.941 388.871 400.238 410.318 400.238C425.704 400.238 439.941 406.794 451.629 417.913C463.305 406.794 477.541 400.238 492.927 400.238C532.556 400.238 564.665 443.553 564.665 496.985C564.665 550.405 532.556 593.72 492.927 593.72C490.627 593.72 488.339 593.571 486.088 593.287C463.169 590.355 440.077 590.355 417.158 593.287C414.907 593.571 412.631 593.72 410.318 593.72C388.871 593.72 369.613 581.017 356.477 560.893C345.333 543.85 338.58 521.487 338.58 496.985C338.58 472.483 345.333 450.108 356.465 433.064Z" fill="#F0B90B"/>
<path d="M419.553 560.893C408.409 543.85 401.656 521.487 401.656 496.985C401.656 472.483 408.409 450.108 419.541 433.064C425.746 423.567 433.313 415.724 441.829 410.087C432.315 403.792 421.63 400.238 410.317 400.238C388.87 400.238 369.612 412.941 356.464 433.064C345.332 450.108 338.579 472.483 338.579 496.985C338.579 521.487 345.332 543.85 356.476 560.893C369.612 581.017 388.87 593.72 410.317 593.72C412.63 593.72 414.905 593.571 417.156 593.287C430.404 591.592 443.709 590.909 457.007 591.174C442.247 586.52 429.236 575.727 419.553 560.893Z" fill="#F0B90B"/>
<path d="M356.477 560.894C352.136 567.523 347.152 573.349 341.635 578.173C330.405 588.018 317.022 593.72 302.637 593.72C300.312 593.72 298.036 593.584 295.797 593.287C272.878 590.356 249.774 590.356 226.867 593.287C224.616 593.584 222.328 593.72 220.028 593.72C180.399 593.72 148.278 550.418 148.278 496.973C148.278 443.553 180.399 400.251 220.028 400.251C235.402 400.251 249.65 406.794 261.326 417.913C273.014 406.794 287.238 400.251 302.637 400.251C317.022 400.251 330.405 405.953 341.623 415.786C347.139 420.61 352.136 426.435 356.465 433.065C345.333 450.109 338.58 472.483 338.58 496.985C338.58 521.488 345.333 543.85 356.477 560.894Z" fill="#F0B90B"/>
<path d="M229.251 560.893C218.107 543.85 211.354 521.487 211.354 496.985C211.354 472.483 218.107 450.108 229.238 433.064C235.444 423.567 243.011 415.724 251.527 410.087C242.013 403.792 231.328 400.238 220.014 400.238C198.567 400.238 179.309 412.941 166.161 433.064C155.03 450.108 148.276 472.483 148.276 496.985C148.276 521.487 155.03 543.85 166.174 560.893C179.309 581.017 198.567 593.72 220.014 593.72C222.327 593.72 224.603 593.571 226.854 593.287C240.102 591.592 253.407 590.909 266.704 591.174C251.945 586.52 238.933 575.727 229.251 560.893Z" fill="#F0B90B"/>
<path d="M229.251 560.893C218.107 543.85 211.354 521.487 211.354 496.985C211.354 472.483 218.107 450.108 229.238 433.064C235.444 423.567 243.011 415.724 251.527 410.087C242.013 403.792 231.328 400.238 220.014 400.238C198.567 400.238 179.309 412.941 166.161 433.064C155.03 450.108 148.276 472.483 148.276 496.985C148.276 521.487 155.03 543.85 166.174 560.893C179.309 581.017 198.567 593.72 220.014 593.72C222.327 593.72 224.603 593.571 226.854 593.287C240.102 591.592 253.407 590.909 266.704 591.174C251.945 586.52 238.933 575.727 229.251 560.893Z" fill="#F0B90B"/>
<path d="M356.478 560.894C352.136 567.524 347.152 573.349 341.635 578.173C336.119 573.349 331.122 567.524 326.793 560.894C315.649 543.85 308.896 521.488 308.896 496.986C308.896 472.484 315.649 450.109 326.781 433.065C331.11 426.435 336.107 420.61 341.623 415.786C347.139 420.61 352.136 426.435 356.465 433.065C345.333 450.109 338.58 472.484 338.58 496.986C338.58 521.488 345.333 543.85 356.478 560.894Z" fill="#F0B90B"/>
<path d="M356.478 560.894C352.136 567.524 347.152 573.349 341.635 578.173C336.119 573.349 331.122 567.524 326.793 560.894C315.649 543.85 308.896 521.488 308.896 496.986C308.896 472.484 315.649 450.109 326.781 433.065C331.11 426.435 336.107 420.61 341.623 415.786C347.139 420.61 352.136 426.435 356.465 433.065C345.334 450.109 338.58 472.484 338.58 496.986C338.58 521.488 345.334 543.85 356.478 560.894Z" fill="#F0B90B"/>
<g opacity="0.7">
<path d="M227.92 490.207L252.972 465.156L278.037 490.22L292.614 475.643L252.972 436L213.344 475.63L227.92 490.207ZM188.473 500.498L203.051 485.92L217.627 500.497L203.05 515.074L188.473 500.498ZM227.92 510.793L252.972 535.844L278.036 510.78L292.621 525.35L292.614 525.357L252.972 565L213.343 525.371L213.322 525.35L227.92 510.793ZM288.319 500.506L302.897 485.928L317.473 500.505L302.896 515.082L288.319 500.506Z" fill="white"/>
<path d="M267.757 500.492H267.764L252.972 485.7L242.04 496.632H242.04L240.784 497.888L238.194 500.479L238.173 500.499L238.194 500.52L252.972 515.299L267.764 500.507L267.771 500.499L267.757 500.492" fill="white"/>
</g>
<g opacity="0.7">
<path d="M426.92 490.207L451.972 465.156L477.037 490.22L491.614 475.643L451.972 436L412.344 475.63L426.92 490.207ZM387.473 500.498L402.051 485.92L416.627 500.497L402.05 515.074L387.473 500.498ZM426.92 510.793L451.972 535.844L477.036 510.78L491.621 525.35L491.614 525.357L451.972 565L412.343 525.371L412.322 525.35L426.92 510.793ZM487.319 500.506L501.897 485.928L516.473 500.505L501.896 515.082L487.319 500.506Z" fill="white"/>
<path d="M466.757 500.492H466.764L451.972 485.7L441.04 496.632H441.04L439.784 497.888L437.194 500.479L437.173 500.499L437.194 500.52L451.972 515.299L466.764 500.507L466.771 500.499L466.757 500.492" fill="white"/>
</g>
<path d="M509.637 100.276L374.832 235.069C374.832 160.623 435.191 100.276 509.637 100.276Z" fill="#90BC42"/>
<path d="M551.108 423.051C535.765 402.36 515.103 390.966 492.929 390.966C481.066 390.966 469.584 394.258 459.057 400.59C455.938 379.107 447.696 339.697 426.329 297.169C416.527 277.659 405.014 259.68 391.927 243.331C463.342 234.851 518.909 173.936 518.909 100.276C518.909 95.1521 514.755 91 509.632 91C436.701 91 376.26 145.474 366.842 215.87C362.58 211.781 358.209 207.815 353.701 204.01C316.539 172.646 271.037 151.048 218.454 139.816C213.446 138.748 208.515 141.942 207.445 146.952C206.375 151.962 209.569 156.891 214.579 157.961C263.988 168.514 306.658 188.684 341.401 217.91C346.741 222.401 351.896 227.115 356.868 232.034C322.611 255.726 294.089 293.613 273.958 342.386C264.053 366.382 258.259 387.804 255.163 401.386C244.29 394.544 232.363 390.972 220.02 390.972C197.845 390.972 177.182 402.366 161.837 423.054C147.11 442.911 139 469.165 139 496.98C139 524.801 147.111 551.059 161.837 570.918C177.18 591.609 197.843 603.001 220.02 603.001C222.719 603.001 225.42 602.829 228.036 602.492C250.127 599.669 272.528 599.668 294.605 602.49C297.233 602.829 299.935 603.001 302.633 603.001C322.677 603.001 341.775 593.417 356.484 576.32C371.28 593.563 390.167 603 410.317 603C412.988 603 415.685 602.828 418.335 602.49C440.422 599.664 462.82 599.664 484.911 602.49C487.559 602.828 490.256 603 492.926 603C515.101 603 535.762 591.605 551.105 570.915C565.833 551.056 573.943 524.8 573.943 496.984C573.943 469.169 565.835 442.91 551.108 423.051ZM499.99 109.92C495.292 171.46 446.021 220.731 384.48 225.429C389.177 163.889 438.449 114.618 499.99 109.92ZM369.745 245.722C385.109 263.252 398.399 283.032 409.433 304.87C428.156 341.923 436.34 377.069 439.844 398.177C430.532 393.426 420.568 390.965 410.318 390.965C390.167 390.965 371.279 400.403 356.482 417.649C341.774 400.554 322.677 390.97 302.635 390.97C293.186 390.97 283.982 393.066 275.306 397.113C278.52 384.555 283.565 367.739 291.108 349.462C304.689 316.564 329.19 272.659 369.745 245.722ZM302.635 584.447C300.727 584.447 298.825 584.326 296.97 584.087C273.319 581.066 249.336 581.067 225.674 584.088C223.83 584.326 221.929 584.447 220.02 584.447C185.575 584.447 157.553 545.208 157.553 496.978C157.553 448.755 185.576 409.522 220.02 409.522C232.472 409.522 244.545 414.748 254.933 424.634C258.515 428.043 264.14 428.043 267.723 424.634C278.112 414.748 290.185 409.522 302.635 409.522C318.475 409.522 333.796 418.188 345.38 433.456C334.962 451.679 329.301 473.781 329.301 496.982C329.301 520.184 334.962 542.286 345.382 560.512C333.799 575.78 318.476 584.447 302.635 584.447ZM492.929 584.446C491.041 584.446 489.134 584.325 487.265 584.086C475.438 582.572 463.532 581.816 451.623 581.816C439.717 581.816 427.807 582.572 415.984 584.086C414.113 584.325 412.207 584.446 410.318 584.446C392.36 584.446 376.16 573.766 364.755 556.719C364.439 556.093 364.057 555.496 363.598 554.947C353.813 539.502 347.854 519.202 347.854 496.98C347.854 448.753 375.875 409.516 410.318 409.516C422.768 409.516 434.84 414.742 445.228 424.628C448.81 428.037 454.435 428.036 458.018 424.627C468.406 414.742 480.477 409.516 492.929 409.516C527.371 409.516 555.392 448.753 555.392 496.98C555.392 545.208 527.371 584.446 492.929 584.446Z" fill="#333333"/>
<path d="M850.173 238.4C866.258 243.467 878.859 252 887.974 264C897.089 275.733 901.647 290.267 901.647 307.6C901.647 332.133 891.995 351.067 872.693 364.4C853.658 377.467 825.776 384 789.048 384H643.473V104H781.005C815.321 104 841.594 110.533 859.824 123.6C878.323 136.667 887.572 154.4 887.572 176.8C887.572 190.4 884.221 202.533 877.518 213.2C871.084 223.867 861.969 232.267 850.173 238.4ZM708.218 152.8V218.8H772.962C789.048 218.8 801.246 216 809.557 210.4C817.868 204.8 822.023 196.533 822.023 185.6C822.023 174.667 817.868 166.533 809.557 161.2C801.246 155.6 789.048 152.8 772.962 152.8H708.218ZM784.222 335.2C801.38 335.2 814.248 332.4 822.827 326.8C831.674 321.2 836.098 312.533 836.098 300.8C836.098 277.6 818.806 266 784.222 266H708.218V335.2H784.222Z" fill="black"/>
<path d="M1261.42 104V384H1207.94L1067.59 214V384H1003.25V104H1057.13L1197.08 274V104H1261.42Z" fill="black"/>
<path d="M1587 238.4C1603.08 243.467 1615.69 252 1624.8 264C1633.92 275.733 1638.47 290.267 1638.47 307.6C1638.47 332.133 1628.82 351.067 1609.52 364.4C1590.48 377.467 1562.6 384 1525.87 384H1380.3V104H1517.83C1552.15 104 1578.42 110.533 1596.65 123.6C1615.15 136.667 1624.4 154.4 1624.4 176.8C1624.4 190.4 1621.05 202.533 1614.34 213.2C1607.91 223.867 1598.8 232.267 1587 238.4ZM1445.04 152.8V218.8H1509.79C1525.87 218.8 1538.07 216 1546.38 210.4C1554.69 204.8 1558.85 196.533 1558.85 185.6C1558.85 174.667 1554.69 166.533 1546.38 161.2C1538.07 155.6 1525.87 152.8 1509.79 152.8H1445.04ZM1521.05 335.2C1538.21 335.2 1551.07 332.4 1559.65 326.8C1568.5 321.2 1572.92 312.533 1572.92 300.8C1572.92 277.6 1555.63 266 1521.05 266H1445.04V335.2H1521.05Z" fill="black"/>
<path d="M719.273 589.8C705.006 589.8 692.073 586.733 680.473 580.6C669.006 574.333 659.94 565.733 653.273 554.8C646.74 543.733 643.473 531.267 643.473 517.4C643.473 503.533 646.74 491.133 653.273 480.2C659.94 469.133 669.006 460.533 680.473 454.4C692.073 448.133 705.073 445 719.473 445C731.606 445 742.54 447.133 752.273 451.4C762.14 455.667 770.406 461.8 777.073 469.8L756.273 489C746.806 478.067 735.073 472.6 721.073 472.6C712.406 472.6 704.673 474.533 697.873 478.4C691.073 482.133 685.74 487.4 681.873 494.2C678.14 501 676.273 508.733 676.273 517.4C676.273 526.067 678.14 533.8 681.873 540.6C685.74 547.4 691.073 552.733 697.873 556.6C704.673 560.333 712.406 562.2 721.073 562.2C735.073 562.2 746.806 556.667 756.273 545.6L777.073 564.8C770.406 572.933 762.14 579.133 752.273 583.4C742.406 587.667 731.406 589.8 719.273 589.8Z" fill="black"/>
<path d="M919.353 447.4V587.4H886.953V530H823.353V587.4H790.953V447.4H823.353V502.6H886.953V447.4H919.353Z" fill="black"/>
<path d="M1052.88 561.4V587.4H944.476V447.4H1050.28V473.4H976.676V503.8H1041.68V529H976.676V561.4H1052.88Z" fill="black"/>
<path d="M1159.86 587.4L1132.86 548.4H1131.26H1103.06V587.4H1070.66V447.4H1131.26C1143.66 447.4 1154.39 449.467 1163.46 453.6C1172.66 457.733 1179.72 463.6 1184.66 471.2C1189.59 478.8 1192.06 487.8 1192.06 498.2C1192.06 508.6 1189.52 517.6 1184.46 525.2C1179.52 532.667 1172.46 538.4 1163.26 542.4L1194.66 587.4H1159.86ZM1159.26 498.2C1159.26 490.333 1156.72 484.333 1151.66 480.2C1146.59 475.933 1139.19 473.8 1129.46 473.8H1103.06V522.6H1129.46C1139.19 522.6 1146.59 520.467 1151.66 516.2C1156.72 511.933 1159.26 505.933 1159.26 498.2Z" fill="black"/>
<path d="M1298.93 587.4L1271.93 548.4H1270.33H1242.13V587.4H1209.73V447.4H1270.33C1282.73 447.4 1293.46 449.467 1302.53 453.6C1311.73 457.733 1318.79 463.6 1323.73 471.2C1328.66 478.8 1331.13 487.8 1331.13 498.2C1331.13 508.6 1328.59 517.6 1323.53 525.2C1318.59 532.667 1311.53 538.4 1302.33 542.4L1333.73 587.4H1298.93ZM1298.33 498.2C1298.33 490.333 1295.79 484.333 1290.73 480.2C1285.66 475.933 1278.26 473.8 1268.53 473.8H1242.13V522.6H1268.53C1278.26 522.6 1285.66 520.467 1290.73 516.2C1295.79 511.933 1298.33 505.933 1298.33 498.2Z" fill="black"/>
<path d="M1348.8 447.4H1381.2V587.4H1348.8V447.4Z" fill="black"/>
<path d="M1514.82 561.4V587.4H1406.42V447.4H1512.22V473.4H1438.62V503.8H1503.62V529H1438.62V561.4H1514.82Z" fill="black"/>
<path d="M1578.6 589.8C1567.53 589.8 1556.8 588.333 1546.4 585.4C1536.13 582.333 1527.87 578.4 1521.6 573.6L1532.6 549.2C1538.6 553.6 1545.73 557.133 1554 559.8C1562.27 562.467 1570.53 563.8 1578.8 563.8C1588 563.8 1594.8 562.467 1599.2 559.8C1603.6 557 1605.8 553.333 1605.8 548.8C1605.8 545.467 1604.47 542.733 1601.8 540.6C1599.27 538.333 1595.93 536.533 1591.8 535.2C1587.8 533.867 1582.33 532.4 1575.4 530.8C1564.73 528.267 1556 525.733 1549.2 523.2C1542.4 520.667 1536.53 516.6 1531.6 511C1526.8 505.4 1524.4 497.933 1524.4 488.6C1524.4 480.467 1526.6 473.133 1531 466.6C1535.4 459.933 1542 454.667 1550.8 450.8C1559.73 446.933 1570.6 445 1583.4 445C1592.33 445 1601.07 446.067 1609.6 448.2C1618.13 450.333 1625.6 453.4 1632 457.4L1622 482C1609.07 474.667 1596.13 471 1583.2 471C1574.13 471 1567.4 472.467 1563 475.4C1558.73 478.333 1556.6 482.2 1556.6 487C1556.6 491.8 1559.07 495.4 1564 497.8C1569.07 500.067 1576.73 502.333 1587 504.6C1597.67 507.133 1606.4 509.667 1613.2 512.2C1620 514.733 1625.8 518.733 1630.6 524.2C1635.53 529.667 1638 537.067 1638 546.4C1638 554.4 1635.73 561.733 1631.2 568.4C1626.8 574.933 1620.13 580.133 1611.2 584C1602.27 587.867 1591.4 589.8 1578.6 589.8Z" fill="black"/>
<defs>
<linearGradient id="paint0_linear_256_1392" x1="0" y1="347.5" x2="1778" y2="347.5" gradientUnits="userSpaceOnUse">
<stop stop-color="#F2994A"/>
<stop offset="1" stop-color="#F2C94C"/>
</linearGradient>
</defs>
</svg>
