<svg width="800" height="800" viewBox="0 0 800 800" fill="none" xmlns="http://www.w3.org/2000/svg">
<path d="M626.335 36.3193C626.335 91.1969 604.092 140.86 568.139 176.813C532.168 212.766 482.504 235.009 427.627 235.009C427.627 125.272 516.598 36.3193 626.335 36.3193Z" fill="#9AD14B"/>
<path d="M400.553 526.863C419.933 497.2 448.32 478.476 479.934 478.476C502.614 478.476 523.599 488.138 540.828 504.529C558.039 488.138 579.023 478.476 601.704 478.476C660.118 478.476 707.448 542.323 707.448 621.084C707.448 699.827 660.118 763.675 601.704 763.675C598.312 763.675 594.94 763.456 591.621 763.037C557.838 758.716 523.799 758.716 490.016 763.037C486.698 763.456 483.343 763.675 479.934 763.675C448.32 763.675 419.933 744.951 400.571 715.288C384.144 690.164 374.189 657.201 374.189 621.084C374.189 584.967 384.144 551.986 400.553 526.863Z" fill="#F0B90B"/>
<path d="M493.547 715.288C477.12 690.164 467.166 657.201 467.166 621.084C467.166 584.967 477.12 551.986 493.529 526.863C502.676 512.862 513.83 501.302 526.383 492.994C512.359 483.714 496.608 478.476 479.932 478.476C448.318 478.476 419.931 497.2 400.551 526.863C384.142 551.986 374.188 584.967 374.188 621.084C374.188 657.201 384.142 690.164 400.569 715.288C419.931 744.951 448.318 763.675 479.932 763.675C483.341 763.675 486.696 763.456 490.014 763.037C509.542 760.539 529.154 759.533 548.755 759.923C526.999 753.062 507.819 737.153 493.547 715.288Z" fill="#F0B90B"/>
<path d="M400.571 715.288C394.172 725.06 386.824 733.648 378.693 740.758C362.138 755.27 342.412 763.675 321.208 763.675C317.78 763.675 314.426 763.475 311.126 763.037C277.342 758.716 243.285 758.716 209.52 763.037C206.202 763.475 202.829 763.675 199.438 763.675C141.024 763.675 93.6757 699.846 93.6757 621.066C93.6757 542.324 141.024 478.494 199.438 478.494C222.1 478.494 243.103 488.139 260.314 504.529C277.543 488.139 298.509 478.494 321.208 478.494C342.412 478.494 362.138 486.899 378.675 501.393C386.806 508.504 394.172 517.091 400.553 526.863C384.144 551.986 374.19 584.968 374.19 621.085C374.19 657.202 384.144 690.165 400.571 715.288Z" fill="#F0B90B"/>
<path d="M213.034 715.288C196.607 690.164 186.652 657.201 186.652 621.084C186.652 584.967 196.607 551.986 213.015 526.863C222.162 512.862 233.316 501.302 245.869 492.994C231.845 483.714 216.095 478.476 199.418 478.476C167.804 478.476 139.417 497.2 120.037 526.863C103.628 551.986 93.6738 584.967 93.6738 621.084C93.6738 657.201 103.628 690.164 120.055 715.288C139.417 744.951 167.804 763.675 199.418 763.675C202.827 763.675 206.182 763.456 209.5 763.037C229.028 760.539 248.64 759.533 268.241 759.923C246.485 753.062 227.305 737.153 213.034 715.288Z" fill="#F0B90B"/>
<path d="M213.033 715.288C196.607 690.164 186.652 657.201 186.652 621.084C186.652 584.967 196.607 551.986 213.015 526.863C222.162 512.862 233.316 501.302 245.869 492.994C231.845 483.714 216.094 478.476 199.418 478.476C167.804 478.476 139.417 497.2 120.037 526.863C103.628 551.986 93.6737 584.967 93.6737 621.084C93.6737 657.201 103.628 690.164 120.055 715.288C139.417 744.951 167.804 763.675 199.418 763.675C202.827 763.675 206.182 763.456 209.5 763.037C229.028 760.539 248.64 759.533 268.241 759.923C246.485 753.062 227.305 737.153 213.033 715.288Z" fill="#F0B90B"/>
<path d="M400.571 715.288C394.172 725.061 386.824 733.648 378.693 740.758C370.561 733.648 363.196 725.061 356.815 715.288C340.388 690.165 330.433 657.202 330.433 621.085C330.433 584.968 340.388 551.987 356.796 526.863C363.178 517.091 370.543 508.504 378.675 501.394C386.806 508.504 394.172 517.091 400.553 526.863C384.144 551.987 374.19 584.968 374.19 621.085C374.19 657.202 384.144 690.165 400.571 715.288Z" fill="#F0B90B"/>
<path d="M400.571 715.288C394.172 725.061 386.824 733.648 378.693 740.758C370.561 733.648 363.196 725.061 356.815 715.288C340.388 690.165 330.433 657.202 330.433 621.085C330.433 584.968 340.388 551.987 356.796 526.863C363.178 517.091 370.543 508.504 378.675 501.394C386.806 508.504 394.172 517.091 400.553 526.863C384.144 551.987 374.19 584.968 374.19 621.085C374.19 657.202 384.144 690.165 400.571 715.288Z" fill="#F0B90B"/>
<g opacity="0.7">
<path d="M211.072 611.093L247.999 574.166L284.946 611.112L306.433 589.625L247.999 531.189L189.586 589.606L211.072 611.093ZM152.926 626.262L174.413 604.774L195.9 626.261L174.412 647.748L152.926 626.262ZM211.072 641.437L247.999 678.363L284.945 641.419L306.443 662.895L306.433 662.906L247.999 721.34L189.584 662.926L189.554 662.895L211.072 641.437ZM300.103 626.274L321.591 604.786L343.077 626.272L321.589 647.76L300.103 626.274Z" fill="white"/>
<path d="M269.793 626.253H269.803L247.999 604.449L231.886 620.563H231.885L230.034 622.415L226.215 626.234L226.185 626.263L226.215 626.295L247.999 648.079L269.803 626.276L269.813 626.263L269.793 626.253" fill="white"/>
</g>
<g opacity="0.7">
<path d="M504.406 611.093L541.333 574.166L578.28 611.112L599.767 589.625L541.333 531.189L482.92 589.606L504.406 611.093ZM446.26 626.262L467.747 604.774L489.234 626.261L467.746 647.748L446.26 626.262ZM504.406 641.437L541.333 678.363L578.279 641.419L599.777 662.895L599.767 662.906L541.333 721.34L482.918 662.926L482.888 662.895L504.406 641.437ZM593.437 626.274L614.925 604.786L636.411 626.272L614.923 647.76L593.437 626.274Z" fill="white"/>
<path d="M563.127 626.253H563.137L541.333 604.449L525.22 620.563H525.219L523.368 622.415L519.55 626.234L519.519 626.263L519.55 626.295L541.333 648.079L563.137 626.276L563.147 626.263L563.127 626.253" fill="white"/>
</g>
<path d="M626.335 36.3193L427.627 235.009C427.627 125.272 516.598 36.3193 626.335 36.3193Z" fill="#90BC42"/>
<path d="M687.464 512.102C664.847 481.602 634.391 464.807 601.705 464.807C584.219 464.807 567.295 469.661 551.778 478.994C547.18 447.327 535.03 389.235 503.535 326.547C489.086 297.788 472.116 271.286 452.825 247.188C558.093 234.688 640.001 144.897 640.001 36.3193C640.001 28.7659 633.879 22.6455 626.327 22.6455C518.824 22.6455 429.731 102.942 415.849 206.71C409.566 200.682 403.123 194.835 396.478 189.227C341.7 142.995 274.628 111.159 197.119 94.6026C189.737 93.0274 182.468 97.7366 180.891 105.12C179.314 112.506 184.021 119.772 191.407 121.349C264.237 136.904 327.135 166.636 378.348 209.716C386.219 216.336 393.818 223.284 401.147 230.535C350.65 265.458 308.608 321.305 278.934 393.199C264.334 428.57 255.792 460.147 251.229 480.168C235.201 470.082 217.621 464.817 199.427 464.817C166.739 464.817 136.281 481.612 113.663 512.106C91.9546 541.377 80 580.076 80 621.077C80 662.086 91.9564 700.792 113.663 730.065C136.28 760.563 166.738 777.356 199.427 777.356C203.405 777.356 207.387 777.103 211.243 776.605C243.805 772.444 276.826 772.443 309.368 776.603C313.242 777.103 317.224 777.356 321.202 777.356C350.747 777.356 378.899 763.228 400.58 738.027C422.39 763.443 450.23 777.354 479.932 777.354C483.87 777.354 487.844 777.101 491.751 776.603C524.308 772.437 557.324 772.437 589.887 776.603C593.791 777.101 597.765 777.354 601.702 777.354C634.388 777.354 664.844 760.557 687.46 730.059C709.169 700.786 721.123 662.084 721.123 621.083C721.123 580.081 709.172 541.375 687.464 512.102ZM612.114 50.5346C605.189 141.247 532.561 213.875 441.847 220.799C448.772 130.087 521.4 57.459 612.114 50.5346ZM420.128 250.712C442.775 276.552 462.365 305.708 478.63 337.898C506.227 392.517 518.291 444.322 523.456 475.437C509.73 468.434 495.042 464.806 479.934 464.806C450.23 464.806 422.389 478.718 400.578 504.139C378.897 478.941 350.747 464.813 321.204 464.813C307.277 464.813 293.709 467.903 280.921 473.869C285.658 455.358 293.095 430.57 304.214 403.629C324.233 355.136 360.348 290.419 420.128 250.712ZM321.204 750.007C318.393 750.007 315.589 749.828 312.854 749.476C277.991 745.022 242.64 745.024 207.761 749.478C205.042 749.828 202.24 750.007 199.427 750.007C148.653 750.007 107.348 692.166 107.348 621.074C107.348 549.992 148.655 492.16 199.427 492.16C217.781 492.16 235.577 499.863 250.89 514.436C256.17 519.461 264.462 519.461 269.743 514.436C285.056 499.863 302.852 492.16 321.204 492.16C344.554 492.16 367.137 504.934 384.213 527.439C368.857 554.302 360.512 586.88 360.512 621.079C360.512 655.28 368.857 687.86 384.215 714.725C367.141 737.232 344.555 750.007 321.204 750.007ZM601.705 750.005C598.923 750.005 596.112 749.826 593.357 749.474C575.924 747.243 558.374 746.129 540.818 746.129C523.269 746.129 505.713 747.243 488.286 749.474C485.527 749.826 482.718 750.005 479.934 750.005C453.463 750.005 429.583 734.262 412.771 709.135C412.306 708.212 411.743 707.332 411.067 706.522C396.644 683.756 387.86 653.832 387.86 621.077C387.86 549.988 429.164 492.151 479.934 492.151C498.286 492.151 516.08 499.854 531.393 514.427C536.673 519.452 544.964 519.45 550.246 514.425C565.557 499.854 583.351 492.151 601.705 492.151C652.475 492.151 693.779 549.988 693.779 621.077C693.779 692.166 652.475 750.005 601.705 750.005Z" fill="#333333"/>
</svg>
