<svg width="800" height="800" viewBox="0 0 800 800" fill="none" xmlns="http://www.w3.org/2000/svg">
<rect width="800" height="800" fill="url(#paint0_linear_50_359)"/>
<path d="M605.182 70.3926C605.182 120.129 585.023 165.139 552.438 197.724C519.837 230.308 474.827 250.467 425.091 250.467C425.091 151.011 505.726 70.3926 605.182 70.3926Z" fill="#9AD14B"/>
<path d="M400.553 514.977C418.118 488.093 443.845 471.123 472.497 471.123C493.052 471.123 512.071 479.881 527.686 494.735C543.284 479.881 562.303 471.123 582.858 471.123C635.8 471.123 678.695 528.989 678.695 600.371C678.695 671.736 635.8 729.602 582.858 729.602C579.785 729.602 576.728 729.404 573.721 729.023C543.102 725.107 512.253 725.107 481.635 729.023C478.627 729.404 475.587 729.602 472.497 729.602C443.845 729.602 418.118 712.632 400.57 685.748C385.682 662.979 376.66 633.104 376.66 600.371C376.66 567.637 385.682 537.746 400.553 514.977Z" fill="#F0B90B"/>
<path d="M484.835 685.748C469.947 662.979 460.926 633.104 460.926 600.371C460.926 567.637 469.947 537.746 484.819 514.977C493.109 502.288 503.218 491.811 514.594 484.281C501.884 475.87 487.61 471.123 472.495 471.123C443.843 471.123 418.116 488.093 400.552 514.977C385.68 537.746 376.659 567.637 376.659 600.371C376.659 633.104 385.68 662.979 400.568 685.748C418.116 712.632 443.843 729.602 472.495 729.602C475.585 729.602 478.626 729.404 481.633 729.023C499.331 726.76 517.106 725.848 534.87 726.201C515.153 719.983 497.77 705.565 484.835 685.748Z" fill="#F0B90B"/>
<path d="M400.57 685.748C394.77 694.605 388.111 702.387 380.742 708.832C365.738 721.984 347.86 729.602 328.643 729.602C325.536 729.602 322.496 729.42 319.505 729.024C288.887 725.107 258.021 725.107 227.419 729.024C224.412 729.42 221.355 729.602 218.281 729.602C165.34 729.602 122.428 671.753 122.428 600.354C122.428 528.989 165.34 471.14 218.281 471.14C238.82 471.14 257.856 479.881 273.454 494.735C289.069 479.881 308.071 471.14 328.643 471.14C347.86 471.14 365.738 478.757 380.725 491.893C388.095 498.337 394.77 506.12 400.553 514.977C385.682 537.746 376.66 567.637 376.66 600.371C376.66 633.104 385.682 662.979 400.57 685.748Z" fill="#F0B90B"/>
<path d="M230.603 685.748C215.715 662.979 206.693 633.104 206.693 600.371C206.693 567.637 215.715 537.746 230.587 514.977C238.876 502.288 248.986 491.811 260.362 484.281C247.652 475.87 233.377 471.123 218.263 471.123C189.611 471.123 163.884 488.093 146.32 514.977C131.448 537.746 122.426 567.637 122.426 600.371C122.426 633.104 131.448 662.979 146.336 685.748C163.884 712.632 189.611 729.602 218.263 729.602C221.353 729.602 224.394 729.404 227.401 729.023C245.099 726.76 262.874 725.848 280.638 726.201C260.921 719.983 243.538 705.565 230.603 685.748Z" fill="#F0B90B"/>
<path d="M230.603 685.748C215.715 662.979 206.693 633.104 206.693 600.371C206.693 567.637 215.715 537.746 230.587 514.977C238.876 502.288 248.986 491.811 260.362 484.281C247.652 475.87 233.377 471.123 218.263 471.123C189.611 471.123 163.884 488.093 146.319 514.977C131.448 537.746 122.426 567.637 122.426 600.371C122.426 633.104 131.448 662.979 146.336 685.748C163.884 712.632 189.611 729.602 218.263 729.602C221.353 729.602 224.394 729.403 227.401 729.023C245.099 726.76 262.874 725.848 280.638 726.201C260.921 719.983 243.538 705.565 230.603 685.748Z" fill="#F0B90B"/>
<path d="M400.57 685.748C394.77 694.605 388.111 702.388 380.742 708.832C373.372 702.388 366.697 694.605 360.913 685.748C346.025 662.979 337.004 633.104 337.004 600.371C337.004 567.638 346.025 537.747 360.897 514.977C366.68 506.12 373.356 498.338 380.725 491.894C388.095 498.338 394.77 506.12 400.553 514.977C385.682 537.747 376.66 567.638 376.66 600.371C376.66 633.104 385.682 662.979 400.57 685.748Z" fill="#F0B90B"/>
<path d="M400.57 685.748C394.77 694.605 388.111 702.388 380.742 708.832C373.372 702.388 366.697 694.605 360.913 685.748C346.025 662.979 337.004 633.104 337.004 600.371C337.004 567.638 346.025 537.747 360.897 514.977C366.68 506.12 373.356 498.338 380.725 491.894C388.095 498.338 394.77 506.12 400.553 514.977C385.682 537.747 376.66 567.638 376.66 600.371C376.66 633.104 385.682 662.979 400.57 685.748Z" fill="#F0B90B"/>
<g opacity="0.7">
<path d="M228.825 591.314L262.293 557.848L295.778 591.332L315.252 571.858L262.293 518.897L209.352 571.841L228.825 591.314ZM176.127 605.062L195.601 585.588L215.074 605.061L195.6 624.536L176.127 605.062ZM228.825 618.816L262.293 652.282L295.777 618.799L315.261 638.263L315.252 638.273L262.293 691.233L209.351 638.291L209.323 638.264L228.825 618.816ZM309.515 605.073L328.989 585.599L348.462 605.072L328.988 624.546L309.515 605.073Z" fill="white"/>
<path d="M282.045 605.055H282.054L262.293 585.294L247.689 599.898H247.688L246.011 601.576L242.55 605.038L242.522 605.064L242.55 605.093L262.293 624.836L282.054 605.075L282.063 605.064L282.045 605.055" fill="white"/>
</g>
<g opacity="0.7">
<path d="M494.677 591.314L528.144 557.848L561.629 591.332L581.103 571.858L528.144 518.897L475.204 571.841L494.677 591.314ZM441.978 605.062L461.453 585.588L480.926 605.061L461.451 624.536L441.978 605.062ZM494.677 618.816L528.144 652.282L561.628 618.799L581.112 638.263L581.103 638.273L528.144 691.233L475.202 638.291L475.175 638.264L494.677 618.816ZM575.366 605.073L594.841 585.599L614.314 605.072L594.839 624.546L575.366 605.073Z" fill="white"/>
<path d="M547.896 605.055H547.905L528.144 585.294L513.54 599.898H513.54L511.862 601.576L508.401 605.038L508.374 605.064L508.401 605.093L528.144 624.836L547.905 605.075L547.914 605.064L547.896 605.055" fill="white"/>
</g>
<path d="M605.182 70.3926L425.091 250.467C425.091 151.011 505.726 70.3926 605.182 70.3926Z" fill="#90BC42"/>
<path d="M660.584 501.599C640.086 473.957 612.483 458.735 582.86 458.735C567.012 458.735 551.673 463.134 537.61 471.592C533.443 442.892 522.431 390.243 493.887 333.429C480.792 307.364 465.412 283.346 447.928 261.505C543.334 250.176 617.568 168.797 617.568 70.3927C617.568 63.547 612.019 58 605.175 58C507.744 58 426.998 130.773 414.417 224.819C408.723 219.356 402.883 214.057 396.86 208.974C347.215 167.074 286.426 138.22 216.18 123.215C209.489 121.788 202.901 126.056 201.472 132.748C200.043 139.442 204.309 146.026 211.003 147.455C277.01 161.553 334.014 188.5 380.429 227.544C387.562 233.543 394.449 239.841 401.092 246.412C355.327 278.063 317.223 328.678 290.329 393.836C277.097 425.893 269.356 454.512 265.22 472.656C250.694 463.516 234.76 458.744 218.272 458.744C188.646 458.744 161.042 473.965 140.543 501.602C120.868 528.131 110.034 563.204 110.034 600.364C110.034 637.531 120.87 672.61 140.543 699.14C161.04 726.781 188.645 742.001 218.272 742.001C221.877 742.001 225.486 741.771 228.98 741.32C258.492 737.55 288.419 737.548 317.912 741.319C321.423 741.771 325.032 742.001 328.638 742.001C355.414 742.001 380.928 729.197 400.578 706.356C420.345 729.392 445.577 741.999 472.495 741.999C476.064 741.999 479.667 741.77 483.208 741.319C512.714 737.543 542.636 737.543 572.149 741.319C575.687 741.77 579.289 741.999 582.857 741.999C612.48 741.999 640.083 726.776 660.58 699.135C680.255 672.605 691.089 637.529 691.089 600.369C691.089 563.209 680.258 528.129 660.584 501.599ZM592.293 83.2762C586.018 165.489 520.194 231.313 437.979 237.588C444.255 155.375 510.078 89.5518 592.293 83.2762ZM418.295 264.699C438.82 288.118 456.575 314.542 471.316 343.716C496.327 393.218 507.261 440.169 511.942 468.369C499.502 462.022 486.19 458.734 472.497 458.734C445.577 458.734 420.344 471.343 400.576 494.382C380.927 471.544 355.414 458.74 328.639 458.74C316.017 458.74 303.72 461.541 292.13 466.948C296.423 450.171 303.163 427.706 313.241 403.289C331.384 359.339 364.115 300.685 418.295 264.699ZM328.639 717.214C326.091 717.214 323.55 717.052 321.071 716.733C289.475 712.696 257.436 712.698 225.824 716.735C223.361 717.052 220.821 717.214 218.272 717.214C172.255 717.214 134.819 664.793 134.819 600.361C134.819 535.939 172.257 483.526 218.272 483.526C234.906 483.526 251.035 490.507 264.913 503.714C269.698 508.268 277.213 508.268 282 503.714C295.878 490.507 312.007 483.526 328.639 483.526C349.801 483.526 370.269 495.102 385.745 515.499C371.827 539.845 364.264 569.371 364.264 600.366C364.264 631.362 371.827 660.89 385.746 685.238C370.272 705.636 349.803 717.214 328.639 717.214ZM582.86 717.212C580.338 717.212 577.79 717.05 575.294 716.731C559.494 714.709 543.588 713.699 527.678 713.699C511.772 713.699 495.861 714.709 480.066 716.731C477.566 717.05 475.02 717.212 472.497 717.212C448.506 717.212 426.864 702.944 411.627 680.171C411.206 679.335 410.695 678.537 410.082 677.804C397.011 657.17 389.05 630.05 389.05 600.364C389.05 535.935 426.484 483.517 472.497 483.517C489.13 483.517 505.257 490.499 519.135 503.706C523.92 508.26 531.435 508.258 536.222 503.704C550.098 490.499 566.226 483.517 582.86 483.517C628.873 483.517 666.307 535.935 666.307 600.364C666.307 664.793 628.873 717.212 582.86 717.212Z" fill="#333333"/>
<defs>
<linearGradient id="paint0_linear_50_359" x1="0" y1="400" x2="800" y2="400" gradientUnits="userSpaceOnUse">
<stop stop-color="#F2994A"/>
<stop offset="1" stop-color="#F2C94C"/>
</linearGradient>
</defs>
</svg>
