<svg width="35" height="35" fill="none" xmlns="http://www.w3.org/2000/svg"><path d="M17.43.193a17.22 17.22 0 1 0 0 34.44 17.22 17.22 0 0 0 0-34.44Z" fill="#29B6F6"/><path d="M25.997 9.664 22.772 26.13s-.138.753-1.072.753c-.496 0-.752-.236-.752-.236l-6.986-5.797-3.418-1.723-4.386-1.167s-.781-.226-.781-.871c0-.538.803-.795.803-.795l18.353-7.29c-.001-.002.56-.203.97-.202.25 0 .537.107.537.43 0 .215-.043.43-.043.43Z" fill="#fff"/><path d="m16.57 23.013-2.95 2.905s-.128.1-.3.104a.425.425 0 0 1-.188-.037l.83-5.136 2.608 2.164Z" fill="#B0BEC5"/><path d="M22.508 12.415a.43.43 0 0 0-.604-.08l-11.361 6.8s1.813 5.072 2.09 5.95c.276.88.499.9.499.9l.83-5.135 8.465-7.832a.43.43 0 0 0 .08-.603Z" fill="#CFD8DC"/></svg>