<svg width="749" height="749" viewBox="0 0 749 749" fill="none" xmlns="http://www.w3.org/2000/svg">
	<circle cx="374.5" cy="374.5" r="374.5" fill="#FFC88F"/>
	<path d="M127 358V525.2C127 586.8 179 582 240.6 582H508.6C570.2 582 622.2 586.8 622.2 525.2V358H127Z" fill="#5B402E"/>
	<path d="M239 582H509.4C571 582 623 586.8 623 525.2V358" fill="#493322"/>
	<path d="M623 318V278C623 216.4 571 166 509.4 166H240.6C179 166 127 216.4 127 278V318H623Z" fill="#5B402E"/>
	<path d="M127 278V318H623V278C623 216.4 571 166 509.4 166" fill="#493322"/>
	<path d="M623 358H127V422H623V358Z" fill="#F2B111"/>
	<path d="M127 422H623V358" fill="#E88813"/>
	<path d="M623 278H127V318H623V278Z" fill="#F2B111"/>
	<path d="M127 318H623V278" fill="#E88813"/>
	<path d="M287 158H231V310H287V158Z" fill="#E88813"/>
	<path d="M519 158H463V310H519V158Z" fill="#E88813"/>
	<path d="M287 414H231V590H287V414Z" fill="#E88813"/>
	<path d="M519 414H463V590H519V414Z" fill="#E88813"/>
	<path d="M311 399.6C315.86 399.6 319.8 395.66 319.8 390.8C319.8 385.94 315.86 382 311 382C306.14 382 302.2 385.94 302.2 390.8C302.2 395.66 306.14 399.6 311 399.6Z" fill="#493322"/>
	<path d="M353.4 399.6C358.26 399.6 362.2 395.66 362.2 390.8C362.2 385.94 358.26 382 353.4 382C348.54 382 344.6 385.94 344.6 390.8C344.6 395.66 348.54 399.6 353.4 399.6Z" fill="#493322"/>
	<path d="M396.6 399.6C401.46 399.6 405.4 395.66 405.4 390.8C405.4 385.94 401.46 382 396.6 382C391.74 382 387.8 385.94 387.8 390.8C387.8 395.66 391.74 399.6 396.6 399.6Z" fill="#493322"/>
	<path d="M439 399.6C443.86 399.6 447.8 395.66 447.8 390.8C447.8 385.94 443.86 382 439 382C434.14 382 430.2 385.94 430.2 390.8C430.2 395.66 434.14 399.6 439 399.6Z" fill="#493322"/>
	<path d="M160.6 399.6C165.46 399.6 169.4 395.66 169.4 390.8C169.4 385.94 165.46 382 160.6 382C155.74 382 151.8 385.94 151.8 390.8C151.8 395.66 155.74 399.6 160.6 399.6Z" fill="#493322"/>
	<path d="M202.2 399.6C207.06 399.6 211 395.66 211 390.8C211 385.94 207.06 382 202.2 382C197.34 382 193.4 385.94 193.4 390.8C193.4 395.66 197.34 399.6 202.2 399.6Z" fill="#493322"/>
	<path d="M547 399.6C551.86 399.6 555.8 395.66 555.8 390.8C555.8 385.94 551.86 382 547 382C542.14 382 538.2 385.94 538.2 390.8C538.2 395.66 542.14 399.6 547 399.6Z" fill="#493322"/>
	<path d="M589.4 399.6C594.26 399.6 598.2 395.66 598.2 390.8C598.2 385.94 594.26 382 589.4 382C584.54 382 580.6 385.94 580.6 390.8C580.6 395.66 584.54 399.6 589.4 399.6Z" fill="#493322"/>
	<path d="M403 472.4C403 457.2 390.2 444.4 375 444.4C359.8 444.4 347 457.2 347 472.4C347 482.8 352.6 492.4 360.6 498L352.6 550H397.4L389.4 498C397.4 493.2 403 482.8 403 472.4Z" fill="#F2B111"/>
	<path d="M397.4 550L389.4 498C397.4 493.2 403 482.8 403 472.4C403 457.2 390.2 444.4 375 444.4C359.8 444.4 347 457.2 347 472.4" fill="#E88813"/>
</svg>
