<svg width="35" height="35" fill="none" xmlns="http://www.w3.org/2000/svg"><path d="M17.368.193a17.22 17.22 0 1 0 0 34.44 17.22 17.22 0 0 0 0-34.44Z" fill="#03A9F4"/><path d="M27.7 11.489c-.76.337-1.721.653-2.583.758.876-.52 2.267-1.604 2.583-2.583-.82.481-2.3.995-3.266 1.181-.772-.818-1.872-1.181-3.091-1.181-2.342 0-3.975 1.984-3.975 4.305v1.722c-3.444 0-6.802-2.624-8.892-5.166a4.144 4.144 0 0 0-.574 2.115c0 1.566 1.439 3.156 2.578 3.912-.695-.022-2.01-.552-2.583-.861v.049c0 2.038 1.43 3.421 3.368 3.807-.354.097-.785.448-2.445.448.539 1.666 3.248 2.547 5.104 2.583-1.452 1.126-4.04 1.723-6.027 1.723-.344 0-.53.018-.861-.02 1.875 1.188 4.494 1.741 6.888 1.741 7.798 0 12.054-5.956 12.054-11.511 0-.182-.006-.794-.016-.973.834-.587 1.171-1.202 1.738-2.049Z" fill="#fff"/></svg>